<svg width="227" height="153" viewBox="0 0 227 153" fill="none" xmlns="http://www.w3.org/2000/svg">
<g style="mix-blend-mode:color-dodge" filter="url(#filter0_f_460_169)">
<path d="M6.82715 86.3209C6.82715 64.7294 24.1144 47.1822 45.6015 46.7686H46.3778C46.9293 46.7686 47.4768 46.7901 48.0469 46.8126L48.7726 46.8413L49.0243 46.1601C57.3747 23.5694 79.0941 7.46265 104.574 7.46265C126.708 7.46265 145.99 19.6206 156.146 37.6183L156.452 38.1605L157.074 38.1252C157.715 38.0888 158.36 38.0671 159.002 38.0671C178.587 38.0671 194.456 53.9474 194.456 73.5298C194.456 73.6923 194.45 73.851 194.442 74.033L194.401 75.0181L195.386 75.073C208.759 75.8197 219.369 86.8992 219.369 100.455C219.369 114.005 207.971 125.881 193.949 125.881H46.3778C24.5323 125.881 6.82715 108.172 6.82715 86.3209Z" stroke="#05FF00" stroke-width="2"/>
</g>
<g style="mix-blend-mode:screen">
<path d="M46.3778 45.7686C46.9523 45.7686 47.5193 45.791 48.0864 45.8134C56.577 22.8432 78.6616 6.46265 104.574 6.46265C127.084 6.46265 146.691 18.8283 157.017 37.1268C157.674 37.0895 158.338 37.0671 159.002 37.0671C179.139 37.0671 195.456 53.3955 195.456 73.5298C195.456 73.7164 195.449 73.8955 195.442 74.0746C209.341 74.8507 220.369 86.3656 220.369 100.455C220.369 114.545 208.536 126.881 193.949 126.881H46.3778C23.9798 126.881 5.82715 108.724 5.82715 86.3209C5.82715 63.9179 23.9798 45.7612 46.3778 45.7612V45.7686Z" fill="#43B66A" fill-opacity="0.62" style="mix-blend-mode:screen"/>
<path d="M46.3778 45.7686C46.9523 45.7686 47.5193 45.791 48.0864 45.8134C56.577 22.8432 78.6616 6.46265 104.574 6.46265C127.084 6.46265 146.691 18.8283 157.017 37.1268C157.674 37.0895 158.338 37.0671 159.002 37.0671C179.139 37.0671 195.456 53.3955 195.456 73.5298C195.456 73.7164 195.449 73.8955 195.442 74.0746C209.341 74.8507 220.369 86.3656 220.369 100.455C220.369 114.545 208.536 126.881 193.949 126.881H46.3778C23.9798 126.881 5.82715 108.724 5.82715 86.3209C5.82715 63.9179 23.9798 45.7612 46.3778 45.7612V45.7686Z" stroke="#05FF00"/>
</g>
<path style="mix-blend-mode:screen" d="M196.456 73.1492C196.247 52.6642 179.527 36.0671 159.002 36.0671C158.524 36.0671 158.054 36.0746 157.584 36.097C153.518 29.0671 148.198 23 141.744 18.0671V18.0522L141.349 17.7537C130.695 9.70893 117.981 5.4552 104.574 5.4552C79.3107 5.4552 56.4277 21.2239 47.3999 44.7836C47.0567 44.7761 46.7209 44.7686 46.3777 44.7686C23.4649 44.7686 4.81982 63.4104 4.81982 86.3283C4.81982 104.806 17.1977 121.231 34.9325 126.298L35.0966 126.381H35.216C38.8421 127.388 42.595 127.896 46.3777 127.896H193.942C209.065 127.896 221.361 115.59 221.361 100.47C221.361 86.2388 210.49 74.4254 196.449 73.1567L196.456 73.1492ZM193.949 126.888H46.3852C42.5651 126.888 38.857 126.358 35.3578 125.373C35.3354 125.373 35.3056 125.366 35.2906 125.351C18.287 120.522 5.83452 104.881 5.83452 86.3209C5.83452 63.9179 23.9946 45.7686 46.3852 45.7686C46.9597 45.7686 47.5192 45.791 48.0937 45.8059C56.5769 22.8433 78.6615 6.46266 104.574 6.46266C118.153 6.46266 130.68 10.9552 140.745 18.5522C147.355 23.5373 152.914 29.8656 157.017 37.1268C157.681 37.0895 158.33 37.0671 159.002 37.0671C179.139 37.0671 195.449 53.3955 195.449 73.5224C195.449 73.7164 195.441 73.8955 195.441 74.0746C209.334 74.8507 220.361 86.3582 220.361 100.455C220.361 114.552 208.536 126.881 193.942 126.881L193.949 126.888Z" fill="#05FF00"/>
<path style="mix-blend-mode:screen" d="M140.745 18.5522C133.157 14.8283 124.629 12.7313 115.609 12.7313C84.0858 12.7313 58.5393 38.2835 58.5393 69.8134C58.5393 69.8731 58.5393 69.9403 58.5467 70.0074C54.4133 67.8806 49.7502 66.6791 44.7811 66.6791C28.158 66.6791 14.6834 80.1567 14.6834 96.7835C14.6834 110.09 23.3158 121.381 35.2833 125.351C18.2796 120.522 5.82715 104.881 5.82715 86.3209C5.82715 63.9179 23.9873 45.7686 46.3778 45.7686C46.9523 45.7686 47.5119 45.791 48.0864 45.8059C56.577 22.8432 78.6616 6.46265 104.574 6.46265C118.153 6.46265 130.68 10.9552 140.745 18.5522Z" fill="#05FF00" fill-opacity="0.42"/>
<g filter="url(#filter1_i_460_169)">
<path d="M92.5242 112.672V88.6343C92.5242 86.7014 90.9499 85.1193 89.01 85.1193H83.7575C83.1755 85.1193 82.7577 84.9626 82.6308 84.7089C82.504 84.4477 82.6458 84.0223 83.0039 83.5671L106.618 53.4253C107.013 52.9178 107.536 52.6417 108.08 52.6417C108.625 52.6417 109.147 52.9178 109.543 53.4253L133.157 83.5671C133.515 84.0223 133.649 84.4552 133.53 84.7089C133.403 84.9701 132.978 85.1193 132.403 85.1193H127.151C125.218 85.1193 123.637 86.694 123.637 88.6343V112.672H92.5167H92.5242Z" fill="#05FF00"/>
</g>
<path d="M76.7531 149L81.3431 138.5H84.8231L89.4131 149H85.7531L82.3631 140.18H83.7431L80.3531 149H76.7531ZM79.4831 147.17L80.3831 144.62H85.2131L86.1131 147.17H79.4831ZM93.3998 149.15C92.6898 149.15 92.0298 148.98 91.4198 148.64C90.8198 148.29 90.3398 147.8 89.9798 147.17C89.6198 146.53 89.4398 145.77 89.4398 144.89C89.4398 144.01 89.6198 143.255 89.9798 142.625C90.3398 141.985 90.8198 141.495 91.4198 141.155C92.0298 140.815 92.6898 140.645 93.3998 140.645C94.1198 140.645 94.7098 140.8 95.1698 141.11C95.6298 141.41 95.9698 141.875 96.1898 142.505C96.4098 143.125 96.5198 143.92 96.5198 144.89C96.5198 145.87 96.4148 146.675 96.2048 147.305C96.0048 147.935 95.6748 148.4 95.2148 148.7C94.7648 149 94.1598 149.15 93.3998 149.15ZM94.2098 146.51C94.4598 146.51 94.6848 146.45 94.8848 146.33C95.0848 146.21 95.2448 146.03 95.3648 145.79C95.4848 145.54 95.5448 145.24 95.5448 144.89C95.5448 144.53 95.4848 144.235 95.3648 144.005C95.2448 143.765 95.0848 143.585 94.8848 143.465C94.6848 143.345 94.4598 143.285 94.2098 143.285C93.9598 143.285 93.7348 143.345 93.5348 143.465C93.3348 143.585 93.1748 143.765 93.0548 144.005C92.9348 144.235 92.8748 144.53 92.8748 144.89C92.8748 145.24 92.9348 145.54 93.0548 145.79C93.1748 146.03 93.3348 146.21 93.5348 146.33C93.7348 146.45 93.9598 146.51 94.2098 146.51ZM95.6498 149V147.89L95.6348 144.89L95.4848 141.89V137.87H98.8748V149H95.6498ZM100.301 152.06C99.901 152.06 99.521 152.025 99.161 151.955C98.791 151.885 98.476 151.785 98.216 151.655L99.026 149.3C99.266 149.43 99.521 149.495 99.791 149.495C99.991 149.495 100.156 149.42 100.286 149.27C100.426 149.12 100.496 148.88 100.496 148.55V140.795H103.886V148.58C103.886 149.64 103.571 150.485 102.941 151.115C102.311 151.745 101.431 152.06 100.301 152.06ZM102.191 140.135C101.571 140.135 101.076 139.97 100.706 139.64C100.336 139.31 100.151 138.9 100.151 138.41C100.151 137.92 100.336 137.51 100.706 137.18C101.076 136.85 101.571 136.685 102.191 136.685C102.811 136.685 103.306 136.84 103.676 137.15C104.046 137.46 104.231 137.86 104.231 138.35C104.231 138.87 104.046 139.3 103.676 139.64C103.306 139.97 102.811 140.135 102.191 140.135ZM108.806 149.15C108.156 149.15 107.566 149.02 107.036 148.76C106.516 148.49 106.106 148.075 105.806 147.515C105.506 146.945 105.356 146.215 105.356 145.325V140.795H108.746V144.74C108.746 145.32 108.841 145.725 109.031 145.955C109.221 146.185 109.481 146.3 109.811 146.3C110.011 146.3 110.196 146.25 110.366 146.15C110.546 146.04 110.691 145.865 110.801 145.625C110.911 145.375 110.966 145.05 110.966 144.65V140.795H114.356V149H111.131V146.63L111.776 147.275C111.486 147.915 111.071 148.39 110.531 148.7C110.001 149 109.426 149.15 108.806 149.15ZM121.559 140.645C122.189 140.645 122.759 140.775 123.269 141.035C123.779 141.285 124.179 141.68 124.469 142.22C124.769 142.76 124.919 143.46 124.919 144.32V149H121.529V144.905C121.529 144.395 121.439 144.035 121.259 143.825C121.079 143.605 120.834 143.495 120.524 143.495C120.294 143.495 120.079 143.55 119.879 143.66C119.689 143.76 119.534 143.93 119.414 144.17C119.304 144.41 119.249 144.735 119.249 145.145V149H115.859V140.795H119.084V143.195L118.439 142.505C118.759 141.885 119.189 141.42 119.729 141.11C120.279 140.8 120.889 140.645 121.559 140.645ZM130.352 149.15C129.222 149.15 128.342 148.88 127.712 148.34C127.082 147.79 126.767 146.95 126.767 145.82V138.95H130.157V145.79C130.157 146.04 130.222 146.235 130.352 146.375C130.492 146.515 130.662 146.585 130.862 146.585C131.152 146.585 131.407 146.51 131.627 146.36L132.437 148.715C132.177 148.865 131.862 148.975 131.492 149.045C131.132 149.115 130.752 149.15 130.352 149.15ZM125.642 143.72V141.245H131.837V143.72H125.642ZM138.256 149V147.545L138.016 147.155V144.395C138.016 143.995 137.891 143.69 137.641 143.48C137.401 143.27 137.006 143.165 136.456 143.165C136.086 143.165 135.711 143.225 135.331 143.345C134.951 143.455 134.626 143.61 134.356 143.81L133.276 141.575C133.756 141.275 134.331 141.045 135.001 140.885C135.671 140.725 136.326 140.645 136.966 140.645C138.376 140.645 139.466 140.96 140.236 141.59C141.016 142.22 141.406 143.22 141.406 144.59V149H138.256ZM135.931 149.15C135.261 149.15 134.701 149.035 134.251 148.805C133.801 148.575 133.461 148.27 133.231 147.89C133.001 147.5 132.886 147.07 132.886 146.6C132.886 146.07 133.021 145.62 133.291 145.25C133.561 144.88 133.971 144.6 134.521 144.41C135.081 144.22 135.786 144.125 136.636 144.125H138.346V145.76H137.176C136.816 145.76 136.551 145.82 136.381 145.94C136.221 146.05 136.141 146.22 136.141 146.45C136.141 146.64 136.211 146.8 136.351 146.93C136.501 147.05 136.701 147.11 136.951 147.11C137.181 147.11 137.391 147.05 137.581 146.93C137.781 146.8 137.926 146.6 138.016 146.33L138.451 147.335C138.321 147.945 138.046 148.4 137.626 148.7C137.206 149 136.641 149.15 135.931 149.15ZM142.871 149V140.795H146.096V143.27L145.571 142.565C145.821 141.925 146.221 141.445 146.771 141.125C147.321 140.805 147.981 140.645 148.751 140.645V143.645C148.601 143.625 148.466 143.61 148.346 143.6C148.236 143.59 148.121 143.585 148.001 143.585C147.491 143.585 147.071 143.72 146.741 143.99C146.421 144.25 146.261 144.705 146.261 145.355V149H142.871Z" fill="#00E050"/>
<defs>
<filter id="filter0_f_460_169" x="0.127149" y="0.762647" width="225.942" height="131.818" filterUnits="userSpaceOnUse" color-interpolation-filters="sRGB">
<feFlood flood-opacity="0" result="BackgroundImageFix"/>
<feBlend mode="normal" in="SourceGraphic" in2="BackgroundImageFix" result="shape"/>
<feGaussianBlur stdDeviation="2.85" result="effect1_foregroundBlur_460_169"/>
</filter>
<filter id="filter1_i_460_169" x="82.5852" y="52.6417" width="50.9873" height="64.0299" filterUnits="userSpaceOnUse" color-interpolation-filters="sRGB">
<feFlood flood-opacity="0" result="BackgroundImageFix"/>
<feBlend mode="normal" in="SourceGraphic" in2="BackgroundImageFix" result="shape"/>
<feColorMatrix in="SourceAlpha" type="matrix" values="0 0 0 0 0 0 0 0 0 0 0 0 0 0 0 0 0 0 127 0" result="hardAlpha"/>
<feOffset dy="4"/>
<feGaussianBlur stdDeviation="2"/>
<feComposite in2="hardAlpha" operator="arithmetic" k2="-1" k3="1"/>
<feColorMatrix type="matrix" values="0 0 0 0 0 0 0 0 0 0 0 0 0 0 0 0 0 0 0.41 0"/>
<feBlend mode="normal" in2="shape" result="effect1_innerShadow_460_169"/>
</filter>
</defs>
</svg>
