<svg width="227" height="133" viewBox="0 0 227 133" fill="none" xmlns="http://www.w3.org/2000/svg">
<g style="mix-blend-mode:color-dodge" filter="url(#filter0_f_460_169)">
<path d="M6.82715 86.3209C6.82715 64.7294 24.1144 47.1822 45.6015 46.7686H46.3778C46.9293 46.7686 47.4768 46.7901 48.0469 46.8126L48.7726 46.8413L49.0243 46.1601C57.3747 23.5694 79.0941 7.46265 104.574 7.46265C126.708 7.46265 145.99 19.6206 156.146 37.6183L156.452 38.1605L157.074 38.1252C157.715 38.0888 158.36 38.0671 159.002 38.0671C178.587 38.0671 194.456 53.9474 194.456 73.5298C194.456 73.6923 194.45 73.851 194.442 74.033L194.401 75.0181L195.386 75.073C208.759 75.8197 219.369 86.8992 219.369 100.455C219.369 114.005 207.971 125.881 193.949 125.881H46.3778C24.5323 125.881 6.82715 108.172 6.82715 86.3209Z" stroke="#05FF00" stroke-width="2"/>
</g>
<g style="mix-blend-mode:screen">
<path d="M46.3778 45.7686C46.9523 45.7686 47.5193 45.791 48.0864 45.8134C56.577 22.8432 78.6616 6.46265 104.574 6.46265C127.084 6.46265 146.691 18.8283 157.017 37.1268C157.674 37.0895 158.338 37.0671 159.002 37.0671C179.139 37.0671 195.456 53.3955 195.456 73.5298C195.456 73.7164 195.449 73.8955 195.442 74.0746C209.341 74.8507 220.369 86.3656 220.369 100.455C220.369 114.545 208.536 126.881 193.949 126.881H46.3778C23.9798 126.881 5.82715 108.724 5.82715 86.3209C5.82715 63.9179 23.9798 45.7612 46.3778 45.7612V45.7686Z" fill="#43B66A" fill-opacity="0.62" style="mix-blend-mode:screen"/>
<path d="M46.3778 45.7686C46.9523 45.7686 47.5193 45.791 48.0864 45.8134C56.577 22.8432 78.6616 6.46265 104.574 6.46265C127.084 6.46265 146.691 18.8283 157.017 37.1268C157.674 37.0895 158.338 37.0671 159.002 37.0671C179.139 37.0671 195.456 53.3955 195.456 73.5298C195.456 73.7164 195.449 73.8955 195.442 74.0746C209.341 74.8507 220.369 86.3656 220.369 100.455C220.369 114.545 208.536 126.881 193.949 126.881H46.3778C23.9798 126.881 5.82715 108.724 5.82715 86.3209C5.82715 63.9179 23.9798 45.7612 46.3778 45.7612V45.7686Z" stroke="#05FF00"/>
</g>
<path style="mix-blend-mode:screen" d="M196.456 73.1492C196.247 52.6642 179.527 36.0671 159.002 36.0671C158.524 36.0671 158.054 36.0746 157.584 36.097C153.518 29.0671 148.198 23 141.744 18.0671V18.0522L141.349 17.7537C130.695 9.70893 117.981 5.4552 104.574 5.4552C79.3107 5.4552 56.4277 21.2239 47.3999 44.7836C47.0567 44.7761 46.7209 44.7686 46.3777 44.7686C23.4649 44.7686 4.81982 63.4104 4.81982 86.3283C4.81982 104.806 17.1977 121.231 34.9325 126.298L35.0966 126.381H35.216C38.8421 127.388 42.595 127.896 46.3777 127.896H193.942C209.065 127.896 221.361 115.59 221.361 100.47C221.361 86.2388 210.49 74.4254 196.449 73.1567L196.456 73.1492ZM193.949 126.888H46.3852C42.5651 126.888 38.857 126.358 35.3578 125.373C35.3354 125.373 35.3056 125.366 35.2906 125.351C18.287 120.522 5.83452 104.881 5.83452 86.3209C5.83452 63.9179 23.9946 45.7686 46.3852 45.7686C46.9597 45.7686 47.5192 45.791 48.0937 45.8059C56.5769 22.8433 78.6615 6.46266 104.574 6.46266C118.153 6.46266 130.68 10.9552 140.745 18.5522C147.355 23.5373 152.914 29.8656 157.017 37.1268C157.681 37.0895 158.33 37.0671 159.002 37.0671C179.139 37.0671 195.449 53.3955 195.449 73.5224C195.449 73.7164 195.441 73.8955 195.441 74.0746C209.334 74.8507 220.361 86.3582 220.361 100.455C220.361 114.552 208.536 126.881 193.942 126.881L193.949 126.888Z" fill="#05FF00"/>
<path style="mix-blend-mode:screen" d="M140.745 18.5522C133.157 14.8283 124.629 12.7313 115.609 12.7313C84.0858 12.7313 58.5393 38.2835 58.5393 69.8134C58.5393 69.8731 58.5393 69.9403 58.5467 70.0074C54.4133 67.8806 49.7502 66.6791 44.7811 66.6791C28.158 66.6791 14.6834 80.1567 14.6834 96.7835C14.6834 110.09 23.3158 121.381 35.2833 125.351C18.2796 120.522 5.82715 104.881 5.82715 86.3209C5.82715 63.9179 23.9873 45.7686 46.3778 45.7686C46.9523 45.7686 47.5119 45.791 48.0864 45.8059C56.577 22.8432 78.6616 6.46265 104.574 6.46265C118.153 6.46265 130.68 10.9552 140.745 18.5522Z" fill="#05FF00" fill-opacity="0.42"/>
<g filter="url(#filter1_i_460_169)">
<path d="M92.5242 112.672V88.6343C92.5242 86.7014 90.9499 85.1193 89.01 85.1193H83.7575C83.1755 85.1193 82.7577 84.9626 82.6308 84.7089C82.504 84.4477 82.6458 84.0223 83.0039 83.5671L106.618 53.4253C107.013 52.9178 107.536 52.6417 108.08 52.6417C108.625 52.6417 109.147 52.9178 109.543 53.4253L133.157 83.5671C133.515 84.0223 133.649 84.4552 133.53 84.7089C133.403 84.9701 132.978 85.1193 132.403 85.1193H127.151C125.218 85.1193 123.637 86.694 123.637 88.6343V112.672H92.5167H92.5242Z" fill="#05FF00"/>
</g>
<defs>
<filter id="filter0_f_460_169" x="0.127149" y="0.762647" width="225.942" height="131.818" filterUnits="userSpaceOnUse" color-interpolation-filters="sRGB">
<feFlood flood-opacity="0" result="BackgroundImageFix"/>
<feBlend mode="normal" in="SourceGraphic" in2="BackgroundImageFix" result="shape"/>
<feGaussianBlur stdDeviation="2.85" result="effect1_foregroundBlur_460_169"/>
</filter>
<filter id="filter1_i_460_169" x="82.5852" y="52.6417" width="50.9873" height="64.0299" filterUnits="userSpaceOnUse" color-interpolation-filters="sRGB">
<feFlood flood-opacity="0" result="BackgroundImageFix"/>
<feBlend mode="normal" in="SourceGraphic" in2="BackgroundImageFix" result="shape"/>
<feColorMatrix in="SourceAlpha" type="matrix" values="0 0 0 0 0 0 0 0 0 0 0 0 0 0 0 0 0 0 127 0" result="hardAlpha"/>
<feOffset dy="4"/>
<feGaussianBlur stdDeviation="2"/>
<feComposite in2="hardAlpha" operator="arithmetic" k2="-1" k3="1"/>
<feColorMatrix type="matrix" values="0 0 0 0 0 0 0 0 0 0 0 0 0 0 0 0 0 0 0.41 0"/>
<feBlend mode="normal" in2="shape" result="effect1_innerShadow_460_169"/>
</filter>
</defs>
</svg>
