<svg width="25" height="26" viewBox="0 0 25 26" fill="none" xmlns="http://www.w3.org/2000/svg">
<path d="M11.1269 25.4C11.8469 25.4 12.5769 25.4 13.2969 25.4C12.5769 25.43 11.8469 25.44 11.1269 25.4Z" fill="url(#paint0_linear_98_492)"/>
<path d="M23.0569 15.14C22.8169 15.02 22.6569 14.85 22.6869 14.54C22.7369 14.13 22.7569 13.71 22.8169 13.3C22.9169 12.59 22.8069 11.9 22.7269 11.21C22.6669 10.62 22.6469 10.56 23.1269 10.25C23.1769 10.22 23.2169 10.2 23.2669 10.17C24.3569 9.56 24.7069 8.24 24.1669 7.2C23.8169 6.52 23.3969 5.88 23.0269 5.22C22.4269 4.13 20.7969 3.77 19.7769 4.5C19.3869 4.78 19.2369 4.75 18.8969 4.47C17.9969 3.73 16.9969 3.17 15.9069 2.76C15.5169 2.61 15.4469 2.51 15.4269 2.09C15.4069 1.6 15.2269 1.17 14.8969 0.8C14.4569 0.3 13.9069 0.08 13.2669 0C12.5469 0 11.8369 0 11.1169 0C11.0869 0 11.0469 0.02 11.0069 0.03C9.80691 0.1 8.99691 1.1 8.95691 2.2C8.95691 2.44 8.85691 2.61 8.63691 2.68C7.44691 3.12 6.34691 3.72 5.38691 4.55C5.24691 4.67 5.03691 4.76 4.83691 4.62C4.28691 4.22 3.67691 4.06 2.99691 4.12C2.44691 4.18 1.97691 4.42 1.64691 4.85C1.17691 5.45 0.866912 6.15 0.466911 6.8C0.136911 7.34 -0.0930885 7.89 0.0369115 8.55C0.146912 9.12 0.396912 9.59 0.846911 9.96C1.06691 10.14 1.31691 10.25 1.54691 10.41C1.70691 10.53 1.78691 10.69 1.74691 10.87C1.61691 11.42 1.57691 11.98 1.58691 12.54C1.59691 13.11 1.53691 13.7 1.70691 14.25C1.84691 14.74 1.61691 15 1.22691 15.18C0.166912 15.69 -0.363089 17.15 0.296912 18.29C0.666911 18.92 0.996912 19.58 1.38691 20.2C1.85691 20.93 2.52691 21.35 3.42691 21.33C3.91691 21.31 4.32691 21.08 4.73691 20.85C4.97691 20.72 5.21691 20.72 5.41691 20.89C6.28691 21.61 7.23691 22.18 8.28691 22.58C8.67691 22.73 9.03691 22.87 8.93691 23.4C8.92691 23.45 8.97691 23.52 8.98691 23.58C9.14691 24.53 10.0669 25.4 11.0869 25.38C11.8069 25.38 12.5369 25.38 13.2569 25.38C13.2869 25.38 13.3069 25.36 13.3369 25.36C14.3469 25.38 15.4569 24.31 15.4169 23.23C15.4169 22.99 15.4869 22.75 15.8169 22.68C16.0969 22.61 16.3569 22.46 16.6269 22.33C17.4769 21.94 18.2569 21.44 18.9869 20.85C19.1769 20.7 19.3769 20.73 19.5469 20.79C19.6669 20.83 19.7969 20.91 19.9169 20.99C20.9169 21.63 22.2869 21.26 22.8969 20.32C23.3569 19.61 23.7669 18.88 24.1569 18.13C24.3869 17.69 24.4169 17.23 24.3269 16.74C24.1769 15.95 23.7069 15.45 23.0169 15.1L23.0569 15.14ZM12.2169 19.14C8.73691 19.14 5.92691 16.32 5.92691 12.85C5.92691 9.38 8.74691 6.56 12.2169 6.56C15.6869 6.56 18.5069 9.38 18.5069 12.85C18.5069 16.32 15.6869 19.14 12.2169 19.14Z" fill="url(#paint1_linear_98_492)"/>
<defs>
<linearGradient id="paint0_linear_98_492" x1="11.1269" y1="25.42" x2="13.2869" y2="25.42" gradientUnits="userSpaceOnUse">
<stop stop-color="#00E050"/>
<stop offset="1" stop-color="#3EAE64"/>
</linearGradient>
<linearGradient id="paint1_linear_98_492" x1="0.0169115" y1="12.7" x2="24.4269" y2="12.7" gradientUnits="userSpaceOnUse">
<stop stop-color="#00E050"/>
<stop offset="1" stop-color="#3EAE64"/>
</linearGradient>
</defs>
</svg>
