<svg width="40" height="34" viewBox="0 0 40 34" fill="none" xmlns="http://www.w3.org/2000/svg">
<path d="M18.9905 23.2471C18.9905 24.1237 18.9605 31.3076 18.9905 32.1842C19.0005 32.6074 18.8405 32.7283 18.4405 32.7283C11.3305 32.7283 8.6305 32.7283 1.5205 32.7283C1.1305 32.7283 0.990496 32.5973 1.0005 32.2044C1.0205 30.5923 1.0005 28.9902 1.0005 27.3781C1.0005 26.7937 1.0205 26.7736 1.6205 26.7736C2.5805 26.7736 3.5505 26.7837 4.5105 26.7534C5.6205 26.7131 6.5305 25.8668 6.7105 24.7584C6.8505 23.8416 6.7705 22.9146 6.7805 21.9876C6.7805 21.6551 6.8905 21.4637 7.2005 21.3327C7.8205 21.0707 8.3505 20.6778 8.8005 20.174C11.0205 17.6752 10.2505 13.8566 7.2305 12.4057C6.9205 12.2545 6.7705 12.0832 6.7905 11.7205C6.8205 11.0051 6.8105 10.2898 6.7905 9.58448C6.7505 7.93207 5.7805 6.9648 4.1505 6.95472C3.2805 6.95472 2.4005 6.94465 1.5305 6.95472C1.1505 6.95472 1.0005 6.83382 1.0005 6.43079C1.0205 4.80861 1.0205 3.18642 1.0005 1.56424C1.0005 1.12091 1.1505 1 1.5805 1C8.6605 1 11.3305 1.01008 18.4105 1C18.8605 1 19.0105 1.14106 19.0005 1.60454C18.9805 4.60709 18.9805 7.60964 19.0005 10.6122C19.0005 11.0253 18.8605 11.1865 18.4705 11.2772C15.8905 11.8817 14.0905 14.1689 14.0405 16.849C13.9905 19.4083 15.8305 21.8163 18.3705 22.4511C18.8605 22.572 19.0305 22.7635 19.0105 23.2672M20.5605 23.2672C20.5605 23.2672 20.5605 23.2068 20.5605 23.1766C20.5005 22.7534 20.6705 22.572 21.1005 22.4713C23.6705 21.8667 25.4905 19.5594 25.5205 16.8994C25.5505 14.2898 23.6805 11.8817 21.1005 11.2772C20.6705 11.1764 20.5605 10.985 20.5605 10.5719C20.5805 7.63987 20.5605 4.71792 20.5605 1.7859C20.5605 1.26868 20.8138 1.01008 21.3205 1.01008C28.3205 1.01008 30.9205 1.01008 37.9205 1.01008C38.1205 1.01008 38.3105 1.03023 38.5105 1.0403V6.95472C37.3505 6.95472 36.1905 6.95472 35.0305 6.98495C33.9205 7.01518 33.0105 7.87161 32.8305 8.97993C32.6905 9.89682 32.7705 10.8238 32.7605 11.7507C32.7605 12.0832 32.6505 12.2747 32.3405 12.4057C31.7205 12.6576 31.1905 13.0606 30.7405 13.5644C28.5205 16.0631 29.2905 19.8919 32.3105 21.3226C32.6505 21.4838 32.7705 21.6854 32.7605 22.0481C32.7405 22.7332 32.7605 23.4083 32.7605 24.0934C32.7605 25.8768 33.9805 26.8542 35.4405 26.7937C36.4605 26.7534 37.4905 26.7937 38.5105 26.7937V32.7081C38.3805 32.7081 38.2405 32.7384 38.1105 32.7384C30.9905 32.7384 28.2705 32.7384 21.1405 32.7384C20.6805 32.7384 20.5405 32.5772 20.5505 32.1338C20.5805 31.2573 20.5805 24.0431 20.5505 23.1665" stroke="#00E050" stroke-miterlimit="10"/>
<path d="M38.4905 6.93459V27.3781" stroke="#00E050" stroke-miterlimit="10"/>
<path d="M1.00049 27.3781C1.00049 24.7887 1.00049 19.4486 1.00049 16.8591C1.00049 14.2697 1.00049 9.01015 1.00049 6.41063" stroke="#00E050" stroke-miterlimit="10"/>
<path d="M19.7405 18.5317C20.6352 18.5317 21.3605 17.8009 21.3605 16.8994C21.3605 15.998 20.6352 15.2672 19.7405 15.2672C18.8458 15.2672 18.1205 15.998 18.1205 16.8994C18.1205 17.8009 18.8458 18.5317 19.7405 18.5317Z" fill="#00E050"/>
</svg>
