<svg width="38" height="32" viewBox="0 0 38 32" fill="none" xmlns="http://www.w3.org/2000/svg">
<path d="M37.991 0.04V5.91C36.831 5.91 35.671 5.91 34.511 5.94C33.401 5.97 32.491 6.82 32.311 7.92C32.171 8.83 32.251 9.75 32.241 10.67C32.241 11 32.131 11.19 31.821 11.32C31.201 11.57 30.671 11.97 30.221 12.47C28.001 14.95 28.771 18.75 31.791 20.17C32.131 20.33 32.251 20.53 32.241 20.89C32.221 21.57 32.241 22.24 32.241 22.92C32.241 24.69 33.461 25.66 34.921 25.6C35.941 25.56 36.971 25.6 37.991 25.6V31.47C37.861 31.47 37.721 31.5 37.591 31.5C30.471 31.5 27.751 31.5 20.621 31.5C20.161 31.5 20.021 31.34 20.031 30.9C20.061 30.03 20.051 29.15 20.031 28.28C20.011 27.55 19.391 27.15 18.851 27.51C18.551 27.7 18.481 28.01 18.481 28.34C18.481 29.21 18.461 30.09 18.481 30.96C18.491 31.38 18.331 31.5 17.931 31.5C10.821 31.5 8.12098 31.5 1.01097 31.5C0.620975 31.5 0.480975 31.37 0.490975 30.98C0.510975 29.38 0.490975 27.79 0.490975 26.19C0.490975 25.61 0.510975 25.59 1.11097 25.59C2.07097 25.59 3.04097 25.6 4.00097 25.57C5.11097 25.53 6.02098 24.69 6.20097 23.59C6.34097 22.68 6.26097 21.76 6.27098 20.84C6.27098 20.51 6.38097 20.32 6.69097 20.19C7.31097 19.93 7.84098 19.54 8.29098 19.04C10.511 16.56 9.74097 12.77 6.72097 11.33C6.41097 11.18 6.26097 11.01 6.28097 10.65C6.31098 9.94 6.30097 9.23 6.28097 8.53C6.24097 6.89 5.27098 5.93 3.64097 5.92C2.77098 5.92 1.89097 5.91 1.02097 5.92C0.640975 5.92 0.490975 5.8 0.490975 5.4C0.510975 3.78 0.510975 2.17 0.490975 0.56C0.490975 0.12 0.640975 0 1.07097 0C8.14097 0.01 10.821 0.01 17.901 0C18.351 0 18.501 0.14 18.491 0.6C18.471 3.58 18.471 6.56 18.491 9.54C18.491 9.95 18.351 10.11 17.961 10.2C15.381 10.8 13.581 13.07 13.531 15.73C13.481 18.27 15.321 20.66 17.861 21.29C18.351 21.41 18.521 21.6 18.501 22.1C18.471 22.74 18.791 23.13 19.271 23.13C19.741 23.13 20.041 22.75 20.051 22.11C20.051 22.08 20.051 22.05 20.051 22.02C19.991 21.6 20.161 21.42 20.591 21.32C23.161 20.72 24.981 18.43 25.011 15.79C25.041 13.2 23.171 10.81 20.591 10.21C20.161 10.11 20.051 9.92 20.051 9.51C20.071 6.6 20.051 3.7 20.051 0.79C20.051 0.276667 20.3043 0.02 20.811 0.02C27.811 0.02 30.411 0.02 37.411 0.02C37.611 0.02 37.801 0.04 38.001 0.05L37.991 0.04Z" fill="#00E050"/>
<path d="M37.9909 7.44998V24.07C36.9509 24.07 35.9209 24.1 34.8809 24.07C34.1409 24.06 33.8109 23.7 33.8109 22.97C33.8109 18.16 33.8109 13.35 33.8109 8.53998C33.8109 7.79998 34.1509 7.44998 34.8809 7.43998C35.9209 7.41998 36.9509 7.43998 37.9909 7.43998V7.44998Z" fill="#00E050"/>
<path d="M0.490967 15.76C0.490967 13.19 0.490967 10.61 0.490967 8.03999C0.490967 7.44999 0.510967 7.42999 1.10097 7.42999C1.91097 7.42999 2.73097 7.42999 3.54097 7.42999C4.38097 7.43999 4.71097 7.77999 4.71097 8.61999C4.71097 13.38 4.71097 18.13 4.71097 22.89C4.71097 23.75 4.38097 24.08 3.50097 24.09C2.70097 24.09 1.90097 24.09 1.11097 24.09C0.510967 24.09 0.500967 24.07 0.500967 23.48C0.500967 20.91 0.500967 18.33 0.500967 15.76H0.490967Z" fill="#00E050"/>
<path d="M23.441 15.49C23.441 17.53 22.231 19.22 20.581 19.72C20.101 19.86 20.061 19.83 20.041 19.35C20.041 19.17 20.041 18.99 19.961 18.82C19.831 18.51 19.611 18.33 19.271 18.33C18.911 18.33 18.671 18.5 18.551 18.83C18.511 18.93 18.491 19.03 18.481 19.14C18.401 19.89 18.371 19.92 17.671 19.64C16.101 19 15.061 17.44 15.071 15.75C15.071 14.08 16.131 12.54 17.681 11.91C17.761 11.88 17.851 11.85 17.941 11.82C18.411 11.68 18.461 11.71 18.481 12.19C18.481 12.37 18.481 12.55 18.561 12.72C18.691 13.03 18.911 13.21 19.251 13.21C19.611 13.21 19.851 13.04 19.971 12.71C20.011 12.61 20.031 12.51 20.041 12.4C20.121 11.64 20.171 11.6 20.891 11.93C22.531 12.67 23.351 13.98 23.451 15.51L23.441 15.49ZM19.261 14.99C18.861 15 18.481 15.39 18.491 15.78C18.491 16.16 18.911 16.54 19.301 16.52C19.681 16.51 20.041 16.1 20.021 15.74C19.991 15.34 19.621 14.98 19.261 14.99Z" fill="#00E050"/>
<path d="M6.28092 15.71C6.28092 14.9 6.28092 14.09 6.28092 13.28C6.28092 13.18 6.25092 13.05 6.35092 12.99C6.47092 12.91 6.57092 13.03 6.67092 13.09C8.43092 14.28 8.44092 17.19 6.70092 18.42C6.60092 18.49 6.50092 18.6 6.38092 18.55C6.22092 18.49 6.28092 18.32 6.28092 18.19C6.28092 17.36 6.28092 16.54 6.28092 15.71Z" fill="#00E050"/>
<path d="M32.2409 15.8C32.2409 16.61 32.2409 17.42 32.2409 18.23C32.2409 18.33 32.2709 18.47 32.1809 18.53C32.0609 18.61 31.9609 18.49 31.8609 18.43C30.0909 17.24 30.0909 14.23 31.8609 13.07C31.9509 13.01 32.0309 12.92 32.1409 12.96C32.2909 13.01 32.2409 13.16 32.2409 13.27C32.2409 14.11 32.2409 14.95 32.2409 15.79V15.8Z" fill="#00E050"/>
</svg>
