<?xml version="1.0" encoding="UTF-8"?>
<svg id="Capa_2" data-name="Capa 2" xmlns="http://www.w3.org/2000/svg" xmlns:xlink="http://www.w3.org/1999/xlink" viewBox="0 0 860.07 372.33">
  <defs>
    <style>
      .cls-1 {
        clip-path: url(#clippath);
      }

      .cls-2 {
        fill: none;
      }

      .cls-2, .cls-3, .cls-4 {
        stroke-width: 0px;
      }

      .cls-3 {
        fill: #3eae64;
      }

      .cls-4 {
        fill: #fff;
      }
    </style>
    <clipPath id="clippath">
      <rect class="cls-2" x="696.14" width="163.94" height="142.55"/>
    </clipPath>
  </defs>
  <g id="Logos">
    <g id="Logo_8" data-name="Logo 8">
      <g>
        <path class="cls-4" d="M246.15,237.16c0,7.51-1.61,14.42-4.81,20.74-3.21,6.32-7.65,11.86-13.32,16.62,5.5,5.31,9.89,11.45,13.19,18.41,3.3,6.96,4.95,14.29,4.95,21.98s-1.65,15.57-4.95,22.53c-3.3,6.96-7.69,13.05-13.19,18.27-5.49,5.22-11.91,9.3-19.23,12.23-7.33,2.93-15.02,4.4-23.08,4.4H0v-189.01h184.89c5.68,0,11.31.69,16.9,2.06,5.58,1.37,10.85,3.43,15.8,6.18,4.95,2.75,9.38,6.14,13.32,10.17,3.94,4.03,7.19,8.61,9.75,13.74,3.66,7.33,5.49,14.56,5.49,21.7ZM32.42,258.87h153.57c3.3,0,6.59-.41,9.89-1.24,3.3-.82,6.27-2.06,8.93-3.71,2.65-1.65,4.81-3.75,6.46-6.32,1.65-2.56,2.47-5.49,2.47-8.79s-.82-6.32-2.47-9.07c-1.65-2.75-3.85-5.04-6.59-6.87-2.75-1.83-5.86-3.25-9.34-4.26-3.48-1-6.96-1.51-10.44-1.51H32.42v41.76ZM211.81,324.25c1.28-2.56,1.92-5.58,1.92-9.07s-.73-6.73-2.2-9.75c-1.47-3.02-3.43-5.67-5.91-7.97-2.47-2.29-5.4-4.12-8.79-5.49-3.39-1.37-6.92-2.06-10.58-2.06H32.42v50h153.84c5.31,0,10.39-1.42,15.25-4.26,4.85-2.84,8.29-6.64,10.3-11.4Z" fill="#ffffff"/>
        <path class="cls-4" d="M304.39,372.33v-108.79c0-10.62,2.01-20.6,6.04-29.94,4.03-9.34,9.57-17.49,16.62-24.45,7.05-6.96,15.25-12.45,24.59-16.48,9.34-4.03,19.32-6.04,29.95-6.04h134.62v31.32h-134.62c-6.23,0-12.13,1.24-17.72,3.71-5.59,2.47-10.44,5.77-14.56,9.89-4.12,4.12-7.42,8.93-9.89,14.42s-3.71,11.36-3.71,17.58v108.79h-31.32Z" fill="#ffffff"/>
        <path class="cls-4" d="M628.28,372.33c-10.99,0-21.29-2.1-30.91-6.32-9.62-4.21-17.99-9.89-25.14-17.03-7.14-7.14-12.82-15.52-17.03-25.14-4.21-9.62-6.32-19.82-6.32-30.63v-32.14c0-10.99,2.1-21.29,6.32-30.91,4.21-9.62,9.89-17.99,17.03-25.14,7.14-7.14,15.52-12.82,25.14-17.03,9.62-4.21,19.92-6.32,30.91-6.32h131.87c10.99,0,21.29,2.11,30.91,6.32,9.62,4.22,18,9.89,25.14,17.03,7.14,7.14,12.82,15.52,17.03,25.14,4.21,9.62,6.32,19.92,6.32,30.91v32.14c0,10.81-2.11,21.02-6.32,30.63-4.21,9.62-9.89,17.99-17.03,25.14-7.14,7.14-15.52,12.82-25.14,17.03-9.62,4.22-19.92,6.32-30.91,6.32h-131.87ZM581.3,293.21c0,6.41,1.24,12.46,3.71,18.13,2.47,5.68,5.81,10.62,10.03,14.83,4.21,4.22,9.2,7.56,14.97,10.03,5.77,2.47,11.86,3.71,18.27,3.71h131.87c6.41,0,12.45-1.24,18.13-3.71,5.67-2.47,10.67-5.81,14.97-10.03,4.3-4.21,7.69-9.16,10.16-14.83,2.47-5.67,3.71-11.72,3.71-18.13v-32.14c0-6.41-1.24-12.45-3.71-18.13-2.47-5.67-5.86-10.67-10.16-14.97-4.31-4.3-9.3-7.69-14.97-10.17-5.68-2.47-11.72-3.71-18.13-3.71h-131.87c-6.41,0-12.5,1.24-18.27,3.71s-10.76,5.86-14.97,10.17c-4.22,4.31-7.55,9.3-10.03,14.97-2.47,5.68-3.71,11.72-3.71,18.13v32.14Z" fill="#ffffff"/>
      </g>
      <g class="cls-1">
        <polygon class="cls-3" points="696.25 .17 696.14 142.41 794.91 71.43 696.25 .17" fill="#3eae64"/>
        <path class="cls-3" d="M729.46,0c-.34,0-.68.06-1.01.23-.73.39-1.24,1.18-1.24,2.03l-.06,138.01c0,.85.45,1.63,1.24,2.03.34.17.68.23,1.01.23.45,0,.9-.17,1.3-.45l95.84-68.84c.56-.45.96-1.13.96-1.8,0-.73-.34-1.41-.96-1.8L730.81.45c-.39-.28-.85-.45-1.35-.45ZM729.46,2.26l95.79,69.18-95.84,68.84.06-138.01" fill="#3eae64"/>
        <path class="cls-3" d="M761.25.11c-.34,0-.68.06-1.01.23-.73.39-1.24,1.18-1.24,2.03l-.11,138.01c0,.85.45,1.63,1.24,2.03.34.17.68.23,1.01.23.45,0,.9-.17,1.3-.45l95.84-68.84c.56-.45.96-1.13.96-1.8,0-.73-.34-1.41-.96-1.8L762.61.56c-.39-.28-.9-.45-1.35-.45ZM761.25,2.37l95.73,69.18-95.84,68.84.11-138.01" fill="#3eae64"/>
      </g>
    </g>
  </g>
</svg>