<svg width="34" height="34" viewBox="0 0 34 34" fill="none" xmlns="http://www.w3.org/2000/svg">
<path d="M21.8505 33.161C21.0305 33.031 20.2205 32.881 19.4305 32.601C18.8305 32.381 18.2505 32.121 17.6905 31.821C17.4905 31.711 17.4605 31.611 17.6005 31.421C18.5605 30.121 19.5105 28.811 20.4505 27.501C20.5605 27.341 20.7005 27.281 20.8905 27.281C22.2605 27.281 23.6305 27.281 25.0005 27.281C25.2005 27.281 25.3405 27.361 25.4505 27.531C26.3805 28.821 27.3205 30.121 28.2705 31.401C28.4305 31.611 28.4005 31.711 28.1705 31.841C26.9605 32.511 25.6705 32.941 24.3005 33.121C24.2205 33.131 24.1305 33.151 24.0505 33.171H21.8505V33.161Z" fill="#00E050"/>
<path d="M33.6205 23.581C33.4805 24.451 33.3105 25.311 33.0005 26.151C32.4005 27.771 31.4705 29.151 30.2205 30.331C30.0305 30.511 29.9305 30.511 29.7705 30.291C28.8405 29.001 27.9005 27.711 26.9605 26.421C26.8405 26.261 26.8105 26.111 26.8805 25.911C27.3105 24.621 27.7205 23.331 28.1305 22.041C28.2005 21.821 28.3205 21.701 28.5405 21.641C30.0605 21.161 31.5705 20.671 33.0905 20.171C33.3305 20.091 33.4205 20.161 33.4505 20.401C33.4905 20.731 33.5605 21.061 33.6205 21.381V23.581Z" fill="#00E050"/>
<path d="M0.500485 8.37103C0.410485 4.35103 3.41049 0.711031 7.54049 0.101031C10.2905 -0.298969 12.7005 0.491031 14.7105 2.43103C15.0905 2.80103 15.0105 2.81103 15.4005 2.43103C17.2405 0.651031 19.4505 -0.148969 22.0005 0.031031C25.8505 0.291031 29.1305 3.45103 29.5705 7.29103C29.7205 8.57103 29.6205 9.83103 29.2005 11.051C29.0505 11.481 29.0505 11.491 28.6505 11.281C26.8905 10.371 25.0205 9.91103 23.0505 9.91103C19.7205 9.91103 16.8005 11.031 14.3605 13.311C12.2105 15.321 10.9405 17.791 10.4905 20.701C10.4505 20.941 10.4305 21.191 10.4105 21.441C10.3905 21.641 10.3105 21.661 10.1705 21.531C10.1105 21.471 10.0505 21.411 9.99049 21.351C7.69049 19.051 5.39049 16.741 3.08049 14.451C1.62049 12.991 0.730485 11.261 0.500485 9.21103C0.470485 8.93103 0.500485 8.65103 0.500485 8.37103Z" fill="#00E050"/>
<path d="M12.6505 20.1309C12.7105 20.1509 12.7705 20.1609 12.8305 20.1809C14.3505 20.6709 15.8605 21.1709 17.3805 21.6509C17.5905 21.7209 17.6905 21.8509 17.7505 22.0509C18.1605 23.3409 18.5805 24.6309 19.0105 25.9209C19.0705 26.1009 19.0505 26.2409 18.9405 26.4009C17.9905 27.7009 17.0405 28.9909 16.1105 30.3009C15.9405 30.5409 15.8305 30.4809 15.6605 30.3209C13.7505 28.5109 12.6105 26.3009 12.3105 23.6809C12.1805 22.5809 12.2205 21.4909 12.4405 20.4009C12.4605 20.2809 12.4405 20.1309 12.6505 20.1309Z" fill="#00E050"/>
<path d="M23.8905 14.541C23.8905 13.801 23.8905 13.051 23.8905 12.311C23.8905 11.791 23.8905 11.791 24.4205 11.871C26.1605 12.131 27.7505 12.751 29.1705 13.771C30.6605 14.841 31.8005 16.211 32.6005 17.861C32.8105 18.291 32.8005 18.291 32.3605 18.431C30.9105 18.901 29.4505 19.371 28.0005 19.851C27.7405 19.941 27.5605 19.901 27.3505 19.741C26.2905 18.951 25.2105 18.171 24.1305 17.401C23.9405 17.271 23.8705 17.121 23.8705 16.891C23.8805 16.101 23.8705 15.321 23.8705 14.531L23.8905 14.541Z" fill="#00E050"/>
<path d="M22.0005 14.5509C22.0005 15.3509 22.0005 16.1409 22.0005 16.9409C22.0005 17.1409 21.9305 17.2809 21.7705 17.4009C20.6605 18.2009 19.5505 19.0009 18.4505 19.8109C18.2905 19.9309 18.1505 19.9409 17.9705 19.8809C16.4605 19.3809 14.9405 18.8909 13.4205 18.4109C13.1605 18.3309 13.1005 18.2209 13.2205 17.9709C14.8705 14.6509 17.5005 12.6209 21.1505 11.9209C21.9805 11.7609 21.9905 11.7909 21.9905 12.6409C21.9905 13.2809 21.9905 13.9109 21.9905 14.5509H22.0005Z" fill="#00E050"/>
<path d="M22.9205 25.411C22.3205 25.411 21.7105 25.411 21.1105 25.411C20.8905 25.411 20.7805 25.341 20.7105 25.131C20.3405 23.961 19.9505 22.791 19.5705 21.631C19.5105 21.441 19.5405 21.321 19.7105 21.191C20.7205 20.471 21.7205 19.741 22.7205 19.001C22.8905 18.871 23.0105 18.881 23.1705 19.001C24.1705 19.741 25.1705 20.461 26.1805 21.191C26.3405 21.301 26.3805 21.421 26.3205 21.601C25.9305 22.781 25.5405 23.951 25.1705 25.131C25.1005 25.351 24.9805 25.411 24.7705 25.401C24.1605 25.401 23.5405 25.401 22.9305 25.401L22.9205 25.411Z" fill="#00E050"/>
</svg>
