<svg width="196" height="197" viewBox="0 0 196 197" fill="none" xmlns="http://www.w3.org/2000/svg">
<g filter="url(#filter0_d_98_438)">
<path d="M176.313 85.1617C174.973 84.2616 173.409 84.1068 172.111 84.7538C170.687 85.4711 169.85 86.962 169.975 88.5794C170.157 90.7735 169.975 92.9394 169.78 95.232C169.682 96.4415 169.571 97.6511 169.529 98.8747C169.445 100.956 169.208 102.785 168.775 104.515C168.217 103.994 167.658 103.502 167.114 103.01C166.332 102.306 165.564 101.631 164.825 100.9C163.317 99.4092 161.74 97.9746 160.204 96.5822C158.711 95.232 157.175 93.8396 155.723 92.405C155.444 92.1237 155.137 91.8564 154.83 91.5892C153.937 90.8157 153.169 90.1546 152.959 88.9732C152.638 87.1589 152.345 85.3445 152.052 83.5161C151.745 81.6596 151.452 79.8031 151.117 77.9465C150.335 73.474 149.47 68.9452 148.646 64.5711L147.823 60.3798C147.823 60.3798 147.906 60.2532 147.948 60.1829C148.018 60.0985 148.074 60.0141 148.13 59.9157C148.911 58.678 149.693 57.4403 150.461 56.2026C151.759 54.107 153.113 51.927 154.509 49.8454C154.802 49.3954 155.081 48.9312 155.36 48.4671C155.709 47.8764 156.044 47.2997 156.421 46.7934C156.463 46.8497 156.505 46.8919 156.561 46.934C157.147 47.4122 157.538 48.1295 157.943 48.875C158.236 49.4094 158.529 49.9579 158.934 50.4924L159.129 50.7596C159.604 51.4066 160.246 52.2927 161.488 52.5036C161.558 52.5036 161.642 52.5177 161.712 52.5036C163.917 52.3771 165.509 51.5754 166.193 50.2392C166.807 49.0578 166.639 47.581 165.732 46.0761C159.897 36.4559 153.211 28.7204 145.296 22.4194C139.266 17.6374 132.747 13.6572 125.907 10.6051C116.01 6.18884 105.206 3.72754 92.852 3.08056C87.6593 2.81333 82.1594 3.20714 75.5568 4.31825C68.2144 5.55594 61.221 7.69376 54.7859 10.6473C40.0173 17.4546 27.9148 27.5389 18.8275 40.6331C9.65648 53.8257 4.4079 68.7061 3.23535 84.8523C2.71887 91.969 3.05388 98.9169 4.22644 105.513C5.69213 113.713 7.96744 121.125 11.1501 128.157C14.6259 135.837 19.5813 143.319 26.2956 151.054C27.0773 151.955 28.208 152.503 29.3805 152.545C30.5252 152.587 31.614 152.166 32.3957 151.378C33.9172 149.845 33.9032 147.299 32.3398 145.569C31.9909 145.189 31.6419 144.81 31.2789 144.43C30.4833 143.6 29.7295 142.799 29.1293 141.926C28.892 141.575 28.5988 141.223 28.3196 140.872C27.0773 139.367 26.7562 138.776 27.7473 137.595C27.845 137.482 27.9009 137.355 27.9428 137.229C29.3945 132.461 31.1114 127.749 32.8842 122.953C33.3588 121.688 33.7218 120.675 34.0149 120.52C34.322 120.351 35.4108 120.548 36.8067 120.787L41.0363 121.491C45.5311 122.236 50.0259 122.981 54.5346 123.685C55.0371 123.769 55.4001 124.05 55.8049 124.472C60.0903 129.015 64.3617 133.572 68.6332 138.115L71.9973 141.701C72.3463 142.053 72.7232 142.391 73.0861 142.742C73.9097 143.502 74.6774 144.233 75.2218 145.119C74.0493 147.285 72.9605 149.69 71.7879 152.644C71.6623 152.953 71.7321 153.291 71.8996 153.572L71.5785 154.261C71.1179 155.316 70.6572 156.357 70.2524 157.426C70.1966 157.566 70.1408 157.623 70.0849 157.594C68.033 156.962 65.967 156.976 63.9709 157.004C62.9658 157.004 62.0306 157.018 61.0814 156.962C57.7312 156.722 54.3113 156.568 50.989 156.427L49.2442 156.343C48.7277 156.315 48.1972 156.315 47.6668 156.329C45.6707 156.343 43.7722 156.357 42.3624 154.866C41.7203 154.177 41.12 153.572 40.2406 153.122C38.1189 152.025 36.3461 151.772 34.6291 154.078C33.6101 155.429 32.954 157.496 35.6062 159.648C39.0122 162.419 43.1301 165.555 47.7505 167.848C48.8393 168.382 50.2771 168.241 51.4357 167.454C52.4128 166.793 52.9572 165.794 52.8875 164.767C52.8875 164.655 52.8875 164.571 52.8875 164.5C53.027 164.5 53.2225 164.542 53.39 164.571C55.5955 164.894 57.8289 164.964 59.9926 165.035C61.8212 165.091 63.7057 165.147 65.5203 165.372C65.5901 165.372 65.6599 165.372 65.7437 165.372C69.4009 165.035 72.4719 165.794 75.0962 167.735C75.1381 167.763 75.1939 167.791 75.2358 167.819L80.7496 170.632C74.3703 169.789 68.0469 168.171 61.9329 165.794C61.2768 165.541 59.2946 164.767 57.5777 166.16C56.3772 167.13 55.8188 168.48 56.0422 169.887C56.2795 171.448 57.452 172.784 59.155 173.445C67.6142 176.736 75.9337 178.635 83.8764 179.113C86.3192 179.254 88.6504 179.324 90.8838 179.324C97.6958 179.324 103.656 178.649 109.268 177.257C119.988 174.599 129.145 170.759 137.27 165.541C145.017 160.562 151.857 154.528 157.622 147.595C161.768 142.602 165.299 137.299 168.119 131.8C172.683 122.939 175.643 113.614 176.913 104.079C177.555 99.2544 178.141 94.0646 178.016 88.7482C178.002 88.1293 177.96 86.2587 176.313 85.1476V85.1617ZM96.1045 169.648C95.7555 169.451 95.4065 169.24 95.0575 169.057C91.3863 167.13 87.7151 165.189 84.0579 163.234L80.8473 161.519C80.2889 161.223 79.7306 160.9 79.1862 160.562C78.7395 160.281 78.223 159.971 78.0276 159.789C78.1393 159.507 78.4882 158.931 78.8372 158.354C78.8651 158.312 78.8791 158.284 78.893 158.241L80.1633 155.4C81.1544 153.178 82.1315 150.956 83.1645 148.762C83.4297 148.199 83.7647 148.171 85.021 148.115C85.2863 148.115 85.5794 148.115 85.8586 148.101C85.9284 148.101 86.0121 148.087 86.0819 148.059C88.427 147.384 90.8978 147.004 93.2987 146.624C94.6527 146.413 95.9928 146.202 97.3329 145.949C100.46 145.344 103.67 144.81 106.769 144.303C108.137 144.078 109.505 143.853 110.971 143.6C111.306 143.516 111.501 143.558 111.752 143.769C114.223 145.865 116.708 147.932 119.193 150.014L121.677 152.095C121.677 152.095 121.719 152.123 121.733 152.137C119.402 156.455 117.099 160.801 114.796 165.133L113.483 167.623C113.442 167.693 113.428 167.735 113.274 167.777C108.751 169.198 103.991 170.042 99.5244 170.731C98.324 170.928 97.3049 170.323 96.1463 169.648H96.1045ZM11.2897 89.6905C11.2897 89.6905 11.2897 89.6905 11.2897 89.6764L11.3176 88.4247C11.4153 88.1996 11.4432 87.9465 11.3734 87.7214C11.3455 87.6089 11.3036 87.5245 11.2618 87.4402C11.0663 86.3572 11.2199 85.2461 11.3874 84.0787C11.513 83.2348 11.6387 82.3628 11.6387 81.4486C12.2947 81.8143 12.9508 82.18 13.6069 82.5597C15.6449 83.713 17.7527 84.8945 19.8745 85.9915C21.061 86.6103 21.2704 87.6089 21.5077 89.1842C21.5775 89.6483 21.6472 90.1124 21.745 90.5484C22.9315 95.5133 24.0482 100.591 25.123 105.485C25.6814 108.031 26.2398 110.576 26.8121 113.108C27.0633 114.247 27.0494 115.105 26.7283 115.949C25.5418 119.17 24.3832 122.391 23.2246 125.626L21.8706 129.409C21.8148 129.55 21.8008 129.704 21.8148 129.845C21.8287 130.028 21.7729 130.211 21.6472 130.45C14.1094 117.145 10.7034 103.783 11.2618 89.6624L11.2897 89.6905ZM21.3122 52.0817C21.3122 52.0817 21.396 52.0114 21.4379 51.9832C21.4797 51.9551 21.5077 51.927 21.5495 51.8989C21.8287 51.7441 22.1777 51.4347 22.3312 50.844C22.5267 50.6471 22.6802 50.3518 22.75 49.9579L22.9594 49.6063C27.7613 41.1113 34.4476 33.6711 43.3953 26.8498C43.7722 26.5544 43.8141 26.5263 44.205 26.9764C44.6656 27.5108 45.1821 27.9609 45.6846 28.4109C45.894 28.5938 46.1034 28.7766 46.3826 29.0439L47.3039 29.8596C47.4574 30.169 47.7505 30.5206 48.3229 30.6894L48.8812 31.2098L49.2581 31.5614L49.635 31.913C49.635 31.913 49.649 31.9271 49.6629 31.9412L50.2492 32.5881C50.2771 32.6303 50.319 32.6725 50.3609 32.7007L54.074 36.1043C54.1856 36.2027 54.2973 36.2731 54.4369 36.3153C54.758 36.4278 54.9534 36.5403 55.079 36.6528C54.8975 37.0326 54.7998 37.4404 54.8138 37.8764C54.1298 38.5515 53.7808 39.4235 53.7808 40.4362C53.041 41.1254 52.6641 42.0114 52.6641 43.0663C51.9243 43.7554 51.5474 44.6415 51.5474 45.6964C50.8076 46.3855 50.4307 47.2716 50.4307 48.3264C49.6908 49.0156 49.314 49.9017 49.314 50.9565C48.5741 51.6457 48.1972 52.5318 48.1972 53.5866C47.4574 54.2758 47.0805 55.1618 47.0805 56.2167C46.3826 56.8637 46.0057 57.6794 45.9638 58.6499C45.5171 59.0296 45.3775 59.5781 45.3077 59.8594C45.3077 59.8876 45.3077 59.9016 45.2938 59.9298C44.7075 60.7174 44.6796 61.4347 44.8192 61.9973C44.54 63.1927 43.9816 64.0366 42.9626 64.7961C38.4539 68.1154 33.9312 71.5753 29.562 74.9226C27.8869 76.2025 26.2258 77.4824 24.5507 78.7623C23.9644 79.2124 23.8388 79.142 23.5875 78.9873C21.7868 77.9325 19.9722 76.9058 18.1575 75.879C16.9431 75.1899 15.7286 74.5007 14.5282 73.8115C13.9419 73.474 13.2719 73.0942 13.1881 72.9958C13.1881 72.7848 13.4812 72.0394 13.7883 71.308C13.8163 71.2518 13.8302 71.1815 13.8442 71.1252C15.1284 65.2462 17.4456 59.3531 21.3122 52.1239V52.0817ZM52.3291 65.8932C52.0778 65.6119 52.022 65.5415 52.6362 64.6273C52.7758 64.4304 52.9154 64.2195 53.027 64.0226C53.055 63.9804 53.0689 63.9382 53.0829 63.896C53.9344 61.8566 54.8138 59.8313 55.6932 57.7919C57.801 52.9115 59.9786 47.8764 61.7933 42.785C62.7983 39.9721 64.5153 39.1422 67.5165 38.5375C71.6623 37.7077 75.8639 36.7935 79.926 35.9074L84.8954 34.8385C87.073 34.3743 89.3204 33.8961 91.512 33.3476C91.5957 33.3336 91.6516 33.3195 91.7214 33.3195C91.9307 33.3195 92.0843 33.4601 92.5031 33.9805L94.1502 35.9918C97.4166 39.9721 100.683 43.9664 103.922 47.9608C104.396 48.5515 104.885 49.1281 105.387 49.7048C106.532 51.055 107.607 52.3349 108.514 53.7554C108.402 54.0648 108.277 54.3742 108.123 54.7118C107.788 55.4291 107.439 56.2308 107.383 57.159C106.741 57.7075 106.602 58.453 106.602 59.0718C105.778 59.7891 105.834 60.8721 105.89 61.4769C105.401 63.5444 104.578 65.4853 103.712 67.5247C103.224 68.692 102.721 69.8875 102.274 71.0971C101.828 72.3348 101.297 73.5724 100.781 74.7679C100.543 75.3305 100.292 75.8931 100.069 76.4557C100.027 76.5541 99.999 76.6667 99.9851 76.7792C99.8176 78.8185 98.659 79.0717 96.4395 79.3811C96.1324 79.4233 95.8392 79.4655 95.5461 79.5077C92.7822 79.9718 90.0044 80.4078 87.2405 80.8298C82.2292 81.6033 77.0505 82.391 71.9973 83.4317C69.4009 83.9662 68.0888 83.0661 66.316 80.9986C64.4176 78.7764 62.3935 76.6385 60.4253 74.557C59.6017 73.685 58.7781 72.827 57.9685 71.955C57.3822 71.3221 56.782 70.6892 56.1818 70.0563C54.8696 68.6639 53.5575 67.2715 52.3012 65.851L52.3291 65.8932ZM144.779 90.4359C137.507 94.0646 130.89 97.412 124.427 100.703C124.371 100.647 124.302 100.562 124.218 100.478C119.332 94.9507 113.902 89.1138 107.593 82.616C106.909 81.9128 106.811 81.4486 107.146 80.6047C110.301 72.7426 113.386 64.9649 116.289 57.4684C116.54 57.581 116.875 57.7216 117.28 57.7357L121.161 58.5514C126.884 59.7469 132.803 60.9987 138.554 62.4755C138.931 62.5739 139.308 62.602 139.629 62.6161C139.754 62.6161 139.88 62.6302 139.964 62.6442C140.271 62.6864 140.34 62.7005 140.452 63.6287C140.48 63.8116 140.494 63.9944 140.522 64.1632C141.988 72.2082 143.356 80.2672 144.626 87.7918C144.668 88.0168 144.682 88.2278 144.71 88.4528C144.765 88.9591 144.835 89.5358 145.059 90.239C145.059 90.2671 144.975 90.3515 144.779 90.45V90.4359ZM151.117 40.2393C148.102 44.9931 145.087 49.747 142.043 54.4727C141.876 54.7399 141.834 54.7962 141.318 54.6837C137.632 53.8398 133.891 53.0522 130.262 52.2927C127.233 51.6598 124.218 51.0128 121.203 50.3517C120.589 50.2111 119.988 50.0705 119.374 49.9157C118.215 49.6345 117.029 49.3391 115.815 49.1422C114.796 48.9734 114.209 48.1436 113.539 47.1731C113.288 46.8075 113.023 46.4418 112.758 46.1183C109.617 42.349 106.49 38.4671 103.461 34.6978C102.302 33.2632 101.144 31.8146 99.9292 30.2956C99.8176 30.155 99.664 29.9299 99.4128 29.7611C98.8265 29.3533 98.7706 29.1142 98.7706 29.1142C98.7706 29.1142 98.8404 28.8188 99.678 28.2703C99.7617 28.214 99.8455 28.1437 99.9153 28.0593C102.316 25.148 104.941 22.335 107.467 19.6065C109.03 17.9328 110.594 16.2591 112.115 14.5432C112.339 14.2901 112.464 14.2197 112.464 14.2057C112.492 14.2057 112.548 14.2479 112.646 14.3463C112.771 14.4729 112.925 14.5573 113.093 14.6136C123.855 17.6374 133.724 22.9961 142.392 30.5769C144.207 32.1662 146.566 34.304 148.66 36.6809C148.702 36.7231 148.744 36.7653 148.786 36.7935C149.777 37.6092 150.489 38.4671 150.977 39.4235C151.047 39.5642 151.215 39.733 151.368 39.8455C151.312 39.9721 151.201 40.1268 151.131 40.2534L151.117 40.2393ZM102.986 12.5882C102.735 12.7851 102.498 12.9961 102.302 13.2071C101.06 14.5573 99.8036 15.8934 98.5473 17.2296C96.4395 19.4658 94.2619 21.7724 92.2099 24.1494C91.2607 25.2464 90.0323 25.4714 88.6225 25.7246C88.2456 25.7949 87.8687 25.8652 87.4918 25.9496C80.4844 27.5671 73.3234 29.1142 66.4137 30.6332L62.1283 31.5614C61.7654 31.6458 61.4862 31.6177 61.0814 31.2239C59.2528 29.4799 57.3822 27.778 55.5257 26.0762C54.4648 25.1058 53.4039 24.1494 52.357 23.1648C51.7987 22.6585 51.1984 22.0819 50.9053 21.7443C51.2961 21.4911 52.0778 21.1255 52.8316 20.7598C53.1248 20.6191 53.4179 20.4926 53.711 20.366L54.2694 20.1128C58.0942 17.7922 62.226 16.3013 65.3947 15.2746C71.6623 13.2212 78.2509 11.9694 85.5236 11.4349C88.4968 11.224 91.512 11.3365 94.4154 11.4349C95.6438 11.4771 96.8583 11.5334 98.0866 11.5475C98.7567 11.5475 99.4407 11.674 100.167 11.8006C100.516 11.8569 100.864 11.9131 101.213 11.9694C101.325 11.9835 101.437 11.9694 101.548 11.9694C101.674 12.0397 101.842 12.1382 102.065 12.2085C102.498 12.3491 102.944 12.321 103.307 12.2929C103.196 12.3913 103.07 12.5039 102.972 12.5742L102.986 12.5882ZM29.9808 84.7257C30.4554 84.3319 30.8602 83.9943 31.3348 83.8396C31.4744 83.7974 31.6 83.7271 31.7117 83.6286C33.6241 81.8987 35.7458 80.3375 37.7978 78.8326C39.096 77.8762 40.45 76.8776 41.7482 75.8509C42.8091 75.007 43.9118 74.2053 45.0006 73.4037C45.6427 72.9395 46.2849 72.4613 46.927 71.9831C50.5982 76.0056 54.3671 80.0422 58.0104 83.9662L61.542 87.7636C61.542 87.7636 61.6397 87.8621 61.6956 87.8902C62.8123 88.706 63.0077 89.5499 62.4494 91.2376C60.1461 98.2418 57.7731 105.724 54.9953 114.81C54.744 115.64 54.6184 115.71 53.6971 115.555C50.8215 115.049 47.946 114.557 45.0565 114.079C42.9068 113.713 40.7711 113.361 38.6214 112.982L37.9095 112.855C37.2394 112.728 36.5554 112.602 35.8296 112.531C35.2852 112.489 34.8943 112.363 34.6431 111.181C32.954 103.291 31.1114 95.3023 29.3247 87.5667L28.9059 85.7524C28.9059 85.7524 28.878 85.6399 28.864 85.5977C29.2828 85.3445 29.6457 85.0492 29.9808 84.7538V84.7257ZM62.1423 118.748C64.1384 112.503 66.0647 106.245 68.005 99.9717L70.4199 92.1518C70.4897 91.8986 70.5316 91.7861 70.9085 91.7861C71.1039 91.7861 71.3971 91.8142 71.8298 91.8846C72.0113 91.9127 72.1927 91.8846 72.3602 91.8283C74.0074 91.1813 75.7523 90.9563 77.5949 90.7031C78.4045 90.5906 79.2281 90.4781 80.0377 90.3375C84.1975 89.578 88.3712 88.8888 92.5449 88.1856C94.7505 87.8199 96.9699 87.4402 99.1754 87.0604C100.376 86.8635 100.934 87.0042 101.548 87.6652C105.457 91.983 109.463 96.329 113.358 100.52L117.42 104.908C117.42 104.908 117.545 105.035 117.629 105.077C118.941 105.907 119.193 106.807 118.606 108.636C115.884 117.201 113.288 125.752 110.887 134.05C110.496 135.401 109.938 135.71 108.975 135.837C104.675 136.385 100.376 137.187 96.2022 137.96C93.9827 138.368 91.7632 138.79 89.5437 139.17C87.4359 139.521 85.3421 139.915 83.2343 140.337C82.4107 140.506 81.8942 140.337 81.3777 139.789C78.3766 136.512 75.2916 133.235 72.3044 130.07L67.5444 125.021C65.8274 123.192 64.1244 121.378 62.3935 119.564C62.1423 119.301 62.0632 119.034 62.1562 118.762L62.1423 118.748ZM125.279 162.686C125.6 162.151 125.935 161.603 126.214 161.012L127.121 159.282C127.875 157.848 128.643 156.413 129.341 154.964C129.494 154.641 129.732 154.542 130.36 154.331C130.513 154.275 130.681 154.233 130.82 154.177C135.692 152.348 139.782 150.97 143.691 149.859C143.788 149.831 143.886 149.789 143.97 149.732C144.305 149.521 144.654 149.339 145.017 149.184C139.042 154.964 132.44 159.578 124.972 163.178C125.069 163.009 125.167 162.855 125.265 162.686H125.279ZM126.256 145.4C123.785 142.939 120.993 140.844 118.606 139.114C118.202 138.818 117.936 138.523 117.908 138.34C117.867 138.017 118.397 137.37 118.578 137.159C118.76 136.948 118.844 136.666 118.816 136.385C118.704 135.204 119.123 134.064 119.57 132.869C119.779 132.32 119.974 131.772 120.128 131.223C121.845 125.176 123.715 119.057 125.53 113.136L126.675 109.395C126.856 108.804 127.191 108.411 127.777 108.115C135.483 104.276 142.378 100.787 148.869 97.4682C149.051 97.3839 149.149 97.3276 149.26 97.3276C149.386 97.3276 149.512 97.426 149.763 97.6511C153.978 101.659 158.208 105.626 162.452 109.606L165.118 112.11C166.807 113.685 166.835 113.741 165.62 116.441C164.908 117.117 164.936 117.82 165.076 118.298C164.224 121.898 162.465 125.246 160.762 128.481L160.051 129.845C159.339 131.223 158.473 132.588 157.636 133.91C157.175 134.627 156.728 135.344 156.296 136.076C155.905 136.723 155.36 137.145 154.593 137.412L147.278 139.943C141.415 141.969 135.553 143.994 129.69 146.062C128.112 146.61 127.317 146.469 126.27 145.415L126.256 145.4Z" fill="#00E050"/>
<path d="M164.196 58.3264C164.113 58.453 164.057 58.6077 164.029 58.7624C163.792 60.422 164.364 61.8426 164.866 63.0943C165.048 63.5584 165.243 64.0226 165.383 64.4867C165.634 65.3165 165.899 66.1463 166.151 66.9902C167.17 70.2391 168.133 73.3052 168.468 76.5823C168.482 76.7792 168.552 76.962 168.677 77.1167C169.878 78.7201 171.357 79.5921 172.739 79.5921C173.284 79.5921 173.8 79.4655 174.289 79.1983C176.117 78.1997 176.913 76.4135 176.438 74.4163L176.103 73.0099C175.029 68.4811 173.898 63.7975 172.041 59.3531C171.455 57.9607 170.743 56.2308 168.454 55.9495C166.221 55.6541 164.95 57.1731 164.183 58.3264H164.196Z" fill="#00E050"/>
</g>
<defs>
<filter id="filter0_d_98_438" x="0" y="0" width="195.033" height="196.324" filterUnits="userSpaceOnUse" color-interpolation-filters="sRGB">
<feFlood flood-opacity="0" result="BackgroundImageFix"/>
<feColorMatrix in="SourceAlpha" type="matrix" values="0 0 0 0 0 0 0 0 0 0 0 0 0 0 0 0 0 0 127 0" result="hardAlpha"/>
<feOffset dx="7" dy="7"/>
<feGaussianBlur stdDeviation="5"/>
<feColorMatrix type="matrix" values="0 0 0 0 0 0 0 0 0 0 0 0 0 0 0 0 0 0 1 0"/>
<feBlend mode="normal" in2="BackgroundImageFix" result="effect1_dropShadow_98_438"/>
<feBlend mode="normal" in="SourceGraphic" in2="effect1_dropShadow_98_438" result="shape"/>
</filter>
</defs>
</svg>
