<svg width="34" height="34" viewBox="0 0 34 34" fill="none" xmlns="http://www.w3.org/2000/svg">
<path d="M29.5904 30.12C29.7204 30.37 27.8304 31.45 27.5904 31.57C24.2404 33.32 20.9104 33.31 17.5704 31.55C17.3404 31.43 16.5404 30.85 16.6804 30.65C17.5804 29.42 18.4904 28.17 19.3804 26.93L26.0604 26.68L27.8004 21.03C29.2604 20.56 30.7204 20.09 32.1704 19.61C32.4104 19.53 32.6604 20.34 32.6904 20.57C32.7304 20.89 32.8004 21.2 32.8504 21.52V23.63C32.7204 24.47 32.5604 25.3 32.2604 26.1C31.6904 27.65 30.7904 28.98 29.5904 30.12ZM29.5904 30.12C29.5904 30.12 26.0604 26.68 26.0604 26.69C26.2104 26.9 29.4104 30.29 29.5904 30.12Z" stroke="url(#paint0_linear_98_386)" stroke-miterlimit="10"/>
<path d="M17.5604 21.02C8.68044 17.94 16.1204 20.54 17.5604 21.02ZM17.5604 21.02L22.6304 17.18C22.6304 17.18 22.6304 17.19 22.6304 17.2L27.7504 21C29.1604 20.53 30.5804 20.08 32.0004 19.62C32.3904 19.49 32.0704 18.55 31.8904 18.17C31.0004 16.31 29.6604 14.84 27.9004 13.77C26.6704 13.02 25.3404 12.56 23.9204 12.38C23.5104 12.33 22.6604 12.36 22.6404 12.73C22.6404 12.69 22.6404 12.66 22.6404 12.62C22.6404 12.33 21.6004 12.33 21.3304 12.36C20.5604 12.46 19.8004 12.64 19.0704 12.91C16.4204 13.9 14.5004 15.69 13.2604 18.22C13.1704 18.41 12.5204 20.46 12.5004 20.58C12.2504 21.81 12.2304 23.05 12.4504 24.29C12.8504 26.6 13.9304 28.56 15.6404 30.16C15.7904 30.3 16.5004 30.79 16.6204 30.63C17.5404 29.36 18.4604 28.1 19.3804 26.83L17.5604 21.03V21.02ZM22.6404 12.34C22.6404 12.64 22.6404 14.67 22.6404 14.97C22.6404 15.19 22.6404 16.99 22.6404 17.21C22.6404 16.97 22.6404 15.15 22.6404 14.92C22.6404 14.64 22.6404 12.63 22.6404 12.35V12.34Z" stroke="url(#paint1_linear_98_386)" stroke-miterlimit="10"/>
<path d="M10.3305 21.66C10.2705 21.6 10.2105 21.54 10.1505 21.49C7.92049 19.26 5.68049 17.02 3.45049 14.79C1.67049 13.01 0.860493 10.86 1.01049 8.35C1.22049 4.84 4.08049 1.67 7.56049 1.1C7.74049 1.07 7.93049 1.03 8.11049 1C8.73049 1 9.35049 1 9.98049 1C10.0005 1 10.0205 1.02 10.0405 1.02C11.9105 1.27 13.5005 2.08 14.8205 3.43C14.9905 3.61 15.1005 3.56 15.2505 3.41C16.0005 2.65 16.8505 2.05 17.8305 1.62C18.5505 1.31 19.3005 1.14 20.0605 1H21.9305C22.7305 1.13 23.5205 1.3 24.2505 1.64C26.9405 2.92 28.5505 5.01 28.9705 7.97C29.1505 9.22 29.0105 10.45 28.6005 11.64" stroke="url(#paint2_linear_98_386)" stroke-miterlimit="10" stroke-linecap="round"/>
<defs>
<linearGradient id="paint0_linear_98_386" x1="21.3704" y1="23.1" x2="30.7604" y2="29.71" gradientUnits="userSpaceOnUse">
<stop stop-color="#00E050"/>
<stop offset="1" stop-color="#3EAE64"/>
</linearGradient>
<linearGradient id="paint1_linear_98_386" x1="13.7904" y1="16.34" x2="27.9704" y2="26.31" gradientUnits="userSpaceOnUse">
<stop stop-color="#00E050"/>
<stop offset="1" stop-color="#3EAE64"/>
</linearGradient>
<linearGradient id="paint2_linear_98_386" x1="3.57049" y1="1.92" x2="25.3005" y2="17.2" gradientUnits="userSpaceOnUse">
<stop stop-color="#00E050"/>
<stop offset="1" stop-color="#3EAE64"/>
</linearGradient>
</defs>
</svg>
