<svg width="34" height="33" viewBox="0 0 34 33" fill="none" xmlns="http://www.w3.org/2000/svg">
<path d="M0.000488281 15.7684C0.000488281 11.3754 0.000488281 6.98244 0.000488281 2.59952C0.0204883 2.53907 0.0404883 2.47862 0.0604883 2.40809C0.540488 0.846357 1.66049 0 3.28049 0C9.93049 0 16.5805 0 23.2305 0C23.4605 0 23.6905 0 23.9105 0.0403027C25.4905 0.332497 26.5505 1.63226 26.5505 3.32497C26.5605 7.22426 26.5605 11.1235 26.5505 15.0128C26.5505 16.9372 25.1805 18.3277 23.2705 18.3377C16.6005 18.3478 9.93049 18.3377 3.26049 18.3377C2.34049 18.3377 1.53049 18.0355 0.870488 17.3604C0.430488 16.9171 0.180488 16.3629 0.000488281 15.7684ZM2.83049 5.12852C2.83049 5.39049 2.84049 5.65245 2.83049 5.91442C2.82049 6.14616 2.91049 6.27715 3.11049 6.3779C6.14049 7.84895 9.17049 9.34015 12.2005 10.8112C12.7205 11.0631 13.2605 11.1437 13.8205 10.9926C14.3705 10.8414 14.8605 10.5392 15.3705 10.2973C18.0305 9.00766 20.6805 7.69782 23.3405 6.40813C23.5805 6.28722 23.6805 6.13609 23.6705 5.87412C23.6505 5.39049 23.6705 4.90685 23.6705 4.42322C23.6705 4.00004 23.6705 4.00004 23.2805 4.19148C20.0605 5.76329 16.8505 7.32502 13.6405 8.89682C13.3805 9.02781 13.1605 9.02781 12.9005 8.89682C10.6705 7.79857 8.43049 6.7104 6.20049 5.62223C5.19049 5.12852 4.18049 4.64489 3.17049 4.1411C2.94049 4.03027 2.83049 4.03027 2.85049 4.33254C2.87049 4.59451 2.85049 4.85648 2.85049 5.11844L2.83049 5.12852Z" fill="#00E050"/>
<path d="M15.3705 21.0784C17.9905 21.0784 20.6005 21.0784 23.2205 21.0784C24.8305 21.0784 26.2605 20.5544 27.4305 19.4159C28.6705 18.2169 29.2505 16.7257 29.2605 15.0128C29.2705 12.9675 29.2605 10.9322 29.2605 8.88681C29.2605 8.4334 29.2605 8.44348 29.7105 8.42332C31.2905 8.37295 32.4905 9.00771 33.3305 10.3579C33.4505 10.5493 33.5005 10.7508 33.5005 10.9825C33.5005 15.8592 33.5005 20.7358 33.5005 25.6124C33.5005 25.8442 33.4505 26.0457 33.3305 26.2371C32.5605 27.4966 31.4405 28.1716 29.9705 28.1716C26.1005 28.1918 22.2305 28.1716 18.3605 28.1716C18.0405 28.1716 17.8105 28.2623 17.6005 28.5041C16.5705 29.6629 15.5105 30.8014 14.4705 31.95C14.1605 32.2926 13.8005 32.4639 13.3305 32.343C12.8405 32.212 12.5305 31.8291 12.5305 31.3052C12.5305 30.4185 12.5305 29.5218 12.5305 28.6351C12.5305 28.1716 12.5305 28.1817 12.0805 28.1716C11.3805 28.1515 10.6805 28.2422 10.0005 28.081C8.18047 27.6578 6.96047 26.1162 6.93047 24.1918C6.92047 23.3152 6.93047 22.4386 6.93047 21.5519C6.93047 21.0784 6.93047 21.0683 7.40047 21.0683C10.0605 21.0683 12.7205 21.0683 15.3805 21.0683L15.3705 21.0784Z" fill="#00E050"/>
</svg>
