<svg width="35" height="34" viewBox="0 0 35 34" fill="none" xmlns="http://www.w3.org/2000/svg">
<path d="M0.500479 16.61V3.55C0.600479 3.22 0.700479 2.89 0.870479 2.58C1.36048 1.73 2.11048 1.24 3.04048 1C10.1705 1 17.3105 1 24.4405 1C24.5005 1.02 24.5605 1.05 24.6205 1.07C26.1205 1.56 26.9805 2.68 26.9805 4.25C26.9905 8.12 27.0005 11.99 26.9805 15.86C26.9805 17.77 25.6005 19.14 23.7005 19.14C17.0505 19.15 10.3905 19.14 3.74048 19.14C2.81048 19.14 2.00048 18.83 1.34048 18.15C0.910479 17.71 0.670479 17.16 0.490479 16.59L0.500479 16.61Z" stroke="#00E050" stroke-miterlimit="10"/>
<path d="M7.40047 20.83C7.41047 21.74 7.39047 24.09 7.40047 25.01C7.44047 26.87 8.63047 28.36 10.4105 28.79C10.7505 28.87 11.1005 28.89 11.4405 28.9C11.9305 28.92 12.5705 28.68 12.8805 29C13.1905 29.32 12.9605 29.95 12.9705 30.45C12.9905 30.96 12.9705 31.47 12.9705 31.98C12.9705 32.54 13.3405 32.96 13.8805 33.05C14.2905 33.12 14.6205 32.94 14.8905 32.65C15.9305 31.51 16.9905 30.38 18.0205 29.23C18.2405 28.98 18.4805 28.89 18.8105 28.89C22.6605 28.9 26.5105 28.91 30.3605 28.89C31.8305 28.89 32.9605 28.21 33.7305 26.95C33.8405 26.77 33.8905 26.58 33.8905 26.36C33.8905 21.52 33.8905 16.68 33.8905 11.84C33.8905 11.62 33.8405 11.43 33.7305 11.25C32.9705 10.02 31.8805 9.32999 30.4205 9.32999H28.8705" stroke="#00E050" stroke-miterlimit="10"/>
<path d="M24.1105 6.35002C24.1105 6.12002 24.1505 5.32002 23.7405 5.51002C20.5405 7.06002 17.3405 8.61002 14.1405 10.16C13.8705 10.29 13.6405 10.29 13.3705 10.16C12.0405 9.50002 10.6905 8.86002 9.35049 8.21002C7.46049 7.30002 5.57049 6.38002 3.68049 5.47002C3.37049 5.32002 3.39049 6.02002 3.38049 6.51002C3.38049 7.08002 3.48049 7.38002 3.74049 7.50002C6.70049 8.92002 9.65049 10.35 12.6005 11.8C13.4005 12.19 14.1705 12.19 14.9805 11.8C17.7205 10.46 20.4305 9.14002 23.1705 7.79002C24.3505 7.21002 24.0705 7.69002 24.1005 6.35002H24.1105Z" fill="#00E050"/>
</svg>
