<svg width="155" height="256" viewBox="0 0 155 256" fill="none" xmlns="http://www.w3.org/2000/svg">
<g filter="url(#filter0_d_98_430)">
<path d="M82.7558 103.559C84.0159 97.9075 83.1484 92.6971 80.153 87.9278C79.804 87.3752 79.4405 86.8082 79.1061 86.2556C76.5614 82.1261 77.4484 78.1419 81.5634 75.5101C85.9983 72.6746 93.9375 67.6872 98.387 64.8518C100.597 63.4413 101.179 61.6674 100.088 59.9225C98.9831 58.1631 97.1365 57.9159 94.9263 59.3118C90.5205 62.0745 82.6831 67.0619 78.2772 69.8392C73.8714 72.6165 69.9891 71.744 67.2409 67.3964C64.42 62.9469 59.5489 55.2404 56.7425 50.7764C55.9573 49.5405 55.0122 48.5808 53.3982 48.7116C50.7081 48.9297 49.5594 51.6052 51.1298 54.1353C53.9362 58.6865 58.88 66.4222 61.7009 70.9588C64.3327 75.2047 63.4312 79.1889 59.229 81.8789C54.8522 84.6852 47.8436 89.0765 43.4524 91.8683C41.1695 93.3224 40.5442 95.1981 41.722 96.943C42.8417 98.6152 44.7174 98.7897 46.9276 97.4083C51.2025 94.7183 58.0657 90.3706 62.3261 87.6661C67.0809 84.6707 70.847 85.514 73.8569 90.2397C76.6923 94.6747 79.5277 99.1096 82.3777 103.544C82.4649 103.661 82.5522 103.763 82.6394 103.879C82.6831 103.777 82.7267 103.675 82.7703 103.574L82.7558 103.559ZM65.0162 150.162C55.1576 147.937 45.7934 145.683 36.3565 143.764C32.6341 143.008 29.5224 145.552 28.8535 149.188C28.2283 152.576 30.3076 155.92 33.9428 156.807C40.3407 158.363 46.7822 159.73 53.2091 161.213C54.0089 161.402 54.5905 161.344 55.0849 160.617C57.7458 156.72 61.0902 153.463 65.0307 150.176L65.0162 150.162ZM46.2151 166.302C46.2151 166.302 46.2005 166.36 46.186 166.389C45.11 166.142 44.0485 165.866 42.9725 165.677C39.3228 165.022 35.993 167.203 35.2078 170.751C34.4226 174.299 36.5019 177.673 40.108 178.632C41.8093 179.083 43.5396 179.359 45.2263 179.839C46.3605 180.159 46.7967 179.839 46.9712 178.705C47.3638 176.233 48.2653 173.907 49.0651 171.551C49.5304 170.199 51.1007 168.556 50.4319 167.669C49.7048 166.695 47.6546 166.724 46.186 166.302H46.2151Z" fill="#00E050"/>
<path d="M124.153 114.101C124.037 114.101 123.95 114.043 123.891 113.941L123.848 113.81L123.964 113.737C124.022 113.854 124.08 113.985 124.153 114.101Z" fill="#00E050"/>
<path d="M14.6619 135.374C11.7101 134.705 7.58059 133.324 5.19592 129.049C2.33141 125.05 2.82579 120.673 3.59645 117.3L17.7881 54.4697L18.995 49.1042C21.2924 38.9112 26.0618 17.711 26.8179 14.5411C28.9117 5.72945 35.7022 1.48358 44.5429 3.49019C71.4286 9.55365 98.3143 15.6316 125.2 21.7096C125.738 21.826 126.276 21.9714 126.814 22.1313L127.439 22.3058C134.739 24.0798 139.101 31.0011 137.516 38.3732C136.207 44.4658 134.826 50.5292 133.445 56.6072L119.922 116.457L113.437 114.988L126.959 55.1241C128.341 49.0752 129.708 43.0408 131.016 36.9773C131.845 33.1386 129.649 29.6779 125.796 28.7473L125.04 28.5437C124.604 28.4274 124.168 28.2966 123.731 28.2093C96.8457 22.1313 69.96 16.0679 43.0743 9.98987C37.8252 8.81207 34.5244 10.8623 33.2885 16.0969C32.5469 19.2232 27.7776 40.3944 25.4947 50.5728L20.7399 71.6568L10.0961 118.783C9.36909 121.982 9.52904 123.741 10.6923 125.297L10.9686 125.734C11.8265 127.377 13.2805 128.264 16.145 128.903H16.1741C29.2898 131.855 42.42 134.821 55.5357 137.788L68.6514 140.754L67.1827 147.239L54.0671 144.273C40.9514 141.307 27.8357 138.34 14.7201 135.403H14.6764L14.6619 135.374Z" fill="#00E050"/>
<path d="M92.28 72.631C95.1881 70.7844 98.0671 68.9813 100.161 67.6436C104.45 64.9099 104.61 60.8967 102.88 58.1485C101.92 56.6072 100.539 55.6039 98.9105 55.2259C97.6455 54.935 95.6098 54.9205 93.1233 56.4909C90.8841 57.9013 87.7433 59.8789 84.6316 61.8564C81.6362 63.7612 78.6408 65.6515 76.4888 67.0038C75.0638 67.9053 73.8279 68.2397 72.8246 68.0216C71.8213 67.8035 70.9052 66.9892 70.0182 65.6079C67.1973 61.1584 62.3407 53.4519 59.5344 48.9879C59.0836 48.2754 57.7168 46.1089 55.0704 45.5127C54.4452 45.3673 53.7908 45.3237 53.122 45.3818C50.7809 45.5709 48.7743 46.865 47.771 48.8425C46.695 50.98 46.884 53.5973 48.2945 55.8802C49.8067 58.323 51.9151 61.6674 53.9944 64.9681C55.7974 67.8181 57.5569 70.6099 58.8655 72.7183C60.5377 75.4083 60.0869 77.3713 57.426 79.0871C54.9832 80.6429 51.7261 82.7077 48.5562 84.7143C46.0552 86.2992 43.5978 87.8406 41.6639 89.0765C39.0902 90.7196 38.2178 92.639 37.9415 93.9622C37.5925 95.6343 37.9415 97.3065 38.9739 98.8187C39.9336 100.229 41.2568 101.174 42.8272 101.523C44.1213 101.814 46.1861 101.829 48.7161 100.244C51.2898 98.6297 54.7941 96.405 58.1094 94.3111L64.1292 90.5015C65.7287 89.4982 67.0374 89.1056 68.0552 89.3237C69.0585 89.5564 70.0764 90.4579 71.0797 92.0428C73.0427 95.1254 75.0202 98.208 76.9977 101.276L79.6005 105.347C80.0949 106.118 80.851 106.613 81.6653 106.802C81.8979 106.86 82.1451 106.889 82.3778 106.889C82.8867 106.947 83.4102 106.889 83.9045 106.714C84.966 106.322 85.7657 105.42 86.0129 104.315C88.0923 94.9655 87.9614 94.1221 82.9739 86.1829L82.5668 85.5431C82.3487 85.2087 82.1451 84.8597 81.927 84.5253C80.3275 81.937 80.7783 79.9741 83.3375 78.331C85.6785 76.8333 89.0083 74.7249 92.28 72.6601V72.631Z" fill="#00E050"/>
<path d="M133.663 144.433C126 130.706 125.258 118.667 124.153 114.057H123.877C123.019 117.94 122.146 121.822 121.289 125.69C119.776 132.088 118.395 138.529 116.723 144.884C115.749 148.591 116.621 151.747 118.584 154.771C119.311 155.905 120.227 156.909 121.23 157.796C122.917 159.279 124.502 160.864 123.237 163.176C122.321 164.848 120.751 165.153 118.264 164.223C117.406 163.336 116.548 162.434 115.69 161.562C111.677 157.534 109.671 152.648 109.583 146.977C109.452 139.373 109.38 131.782 109.278 124.178C109.118 113.069 108.973 101.96 108.755 90.8505C108.667 86.3865 105.032 83.4348 100.975 84.6416C96.8748 85.863 93.7486 88.364 92.0182 92.4209C90.666 94.2094 90.8259 96.6086 90.2443 98.4989C87.7433 106.554 85.8966 114.813 85.8385 123.247C85.7221 137.075 81.8252 146.847 71.0942 154.19C55.9429 164.557 49.0506 183.78 54.0962 201.432C55.1577 205.14 55.6375 208.892 55.2594 212.745C54.8087 217.282 53.2965 221.6 52.584 226.093L52.5549 226.151C51.3044 229.438 53.3401 233.044 56.7862 233.712C67.081 235.719 80.5602 237.275 89.2846 238.162C94.1557 238.656 97.1511 238.613 99.6521 230.615C101.193 225.686 102.371 219.434 104.494 215.842C108.464 209.124 112.855 202.639 117.072 196.067C121.798 188.68 126.552 181.322 131.249 173.921C137.211 164.528 138.112 154.684 133.677 144.418L133.663 144.433Z" fill="#00E050"/>
<path d="M65.0161 150.162C61.0756 153.448 57.7313 156.705 55.0703 160.602C54.5759 161.329 54.0088 161.387 53.1946 161.198C46.7821 159.715 40.3261 158.363 33.9282 156.792C30.3076 155.905 28.2137 152.561 28.839 149.173C29.5224 145.538 32.6195 142.993 36.3419 143.749C45.7788 145.683 55.143 147.923 65.0016 150.147L65.0161 150.162Z" fill="#00E050"/>
<path d="M46.2151 166.302C47.6837 166.709 49.7193 166.695 50.4609 167.669C51.1298 168.556 49.5594 170.199 49.0941 171.551C48.2944 173.907 47.3928 176.248 47.0002 178.705C46.8258 179.839 46.3895 180.159 45.2554 179.839C43.5687 179.359 41.8238 179.083 40.1371 178.632C36.531 177.673 34.4517 174.285 35.2369 170.751C36.022 167.203 39.3373 165.022 43.0016 165.677C44.0776 165.866 45.139 166.157 46.2151 166.389C46.2151 166.36 46.2296 166.331 46.2441 166.302H46.2151Z" fill="#00E050"/>
</g>
<defs>
<filter id="filter0_d_98_430" x="0" y="0" width="154.84" height="255.335" filterUnits="userSpaceOnUse" color-interpolation-filters="sRGB">
<feFlood flood-opacity="0" result="BackgroundImageFix"/>
<feColorMatrix in="SourceAlpha" type="matrix" values="0 0 0 0 0 0 0 0 0 0 0 0 0 0 0 0 0 0 127 0" result="hardAlpha"/>
<feOffset dx="7" dy="7"/>
<feGaussianBlur stdDeviation="5"/>
<feColorMatrix type="matrix" values="0 0 0 0 0 0 0 0 0 0 0 0 0 0 0 0 0 0 1 0"/>
<feBlend mode="normal" in2="BackgroundImageFix" result="effect1_dropShadow_98_430"/>
<feBlend mode="normal" in="SourceGraphic" in2="effect1_dropShadow_98_430" result="shape"/>
</filter>
</defs>
</svg>
