<svg width="28" height="34" viewBox="0 0 28 34" fill="none" xmlns="http://www.w3.org/2000/svg">
<path d="M26.6605 22.66C25.6705 19.51 23.5905 17.54 20.3905 16.75C19.8005 16.61 19.2005 16.58 18.6005 16.58C17.7205 16.58 9.80049 16.58 9.25049 16.58C6.21049 16.58 3.49049 18.25 2.06049 20.81C1.87049 21.1 1.72049 21.44 1.60049 21.79C1.49049 22.07 1.39049 22.35 1.30049 22.65C1.26049 22.78 1.01049 25.71 1.01049 26.03C1.01049 27.95 1.03049 29.87 1.00049 31.79C1.00049 32.47 1.21049 32.95 1.82049 33.25H5.74049C6.69049 33.2 7.46049 33.18 8.09049 33.16C8.09049 33.19 8.09049 33.22 8.09049 33.25H26.1405C26.6205 33 26.9505 32.65 26.9505 32.06C26.9505 30.02 26.9505 27.98 26.9505 25.94C26.9505 25.73 26.7005 22.81 26.6505 22.66H26.6605Z" stroke="#00E050" stroke-miterlimit="10"/>
<path d="M13.9505 14.92C17.7944 14.92 20.9105 11.8039 20.9105 7.96C20.9105 4.1161 17.7944 1 13.9505 1C10.1066 1 6.99048 4.1161 6.99048 7.96C6.99048 11.8039 10.1066 14.92 13.9505 14.92Z" stroke="#00E050" stroke-miterlimit="10"/>
</svg>
