<svg width="27" height="33" viewBox="0 0 27 33" fill="none" xmlns="http://www.w3.org/2000/svg">
<path d="M13.4405 13.92C17.2844 13.92 20.4005 10.8039 20.4005 6.96C20.4005 3.1161 17.2844 0 13.4405 0C9.59657 0 6.48047 3.1161 6.48047 6.96C6.48047 10.8039 9.59657 13.92 13.4405 13.92Z" fill="#00E050"/>
<path d="M26.1505 21.6601C25.1605 18.5101 23.0805 16.5401 19.8805 15.7501C19.2905 15.6101 18.6905 15.5801 18.0905 15.5801C17.2105 15.5801 9.29048 15.5801 8.74048 15.5801C5.70048 15.5801 2.98048 17.2501 1.55048 19.8101C1.36048 20.1001 1.21048 20.4401 1.09048 20.7901C0.980479 21.0701 0.880479 21.3501 0.790479 21.6501C0.750479 21.7801 0.500479 24.7101 0.500479 25.0301C0.500479 26.9501 0.520479 28.8701 0.490479 30.7901C0.490479 31.4701 0.700478 31.9501 1.31048 32.2501H5.23048C6.18048 32.2001 6.95048 32.1801 7.58048 32.1601C7.58048 32.1901 7.58048 32.2201 7.58048 32.2501H25.6305C26.1105 32.0001 26.4405 31.6501 26.4405 31.0601C26.4405 29.0201 26.4405 26.9801 26.4405 24.9401C26.4405 24.7301 26.1905 21.8101 26.1405 21.6601H26.1505Z" fill="#00E050"/>
</svg>
